<?xml version="1.0" encoding="UTF-8" standalone="no"?>
<svg
   xmlns:dc="http://purl.org/dc/elements/1.1/"
   xmlns:cc="http://creativecommons.org/ns#"
   xmlns:rdf="http://www.w3.org/1999/02/22-rdf-syntax-ns#"
   xmlns:svg="http://www.w3.org/2000/svg"
   xmlns="http://www.w3.org/2000/svg"
   viewBox="0 0 1706.6667 1706.6667"
   height="1706.6667"
   width="1706.6667"
   xml:space="preserve"
   id="svg2"
   version="1.1"><metadata
     id="metadata8"><rdf:RDF><cc:Work
         rdf:about=""><dc:format>image/svg+xml</dc:format><dc:type
           rdf:resource="http://purl.org/dc/dcmitype/StillImage" /></cc:Work></rdf:RDF></metadata><defs
     id="defs6"><clipPath
       id="clipPath20"
       clipPathUnits="userSpaceOnUse"><path
         id="path18"
         d="M 0,1280 H 1280 V 0 H 0 Z" /></clipPath><clipPath
       id="clipPath32"
       clipPathUnits="userSpaceOnUse"><path
         id="path30"
         d="m 738.74,828.779 c 34.409,-18.035 63.272,-45.203 83.384,-78.279 v 0 l 35.566,28.022 C 811.885,850.353 731.51,898 640,898 v 0 c 45.42,0 84.11,-28.84 98.74,-69.221" /></clipPath><linearGradient
       id="linearGradient46"
       spreadMethod="pad"
       gradientTransform="matrix(153.82603,55.988098,55.988098,-153.82603,674.35449,803.61084)"
       gradientUnits="userSpaceOnUse"
       y2="0"
       x2="1"
       y1="0"
       x1="0"><stop
         id="stop38"
         offset="0"
         style="stop-opacity:1;stop-color:#a7a9ac" /><stop
         id="stop40"
         offset="0.315271"
         style="stop-opacity:1;stop-color:#a7a9ac" /><stop
         id="stop42"
         offset="0.62069"
         style="stop-opacity:1;stop-color:#ffffff" /><stop
         id="stop44"
         offset="1"
         style="stop-opacity:1;stop-color:#ffffff" /></linearGradient><clipPath
       id="clipPath56"
       clipPathUnits="userSpaceOnUse"><path
         id="path54"
         d="M 0,1280 H 1280 V 0 H 0 Z" /></clipPath><clipPath
       id="clipPath72"
       clipPathUnits="userSpaceOnUse"><path
         id="path70"
         d="M 411.82,519.521 C 455.093,437.735 541.03,382 640,382 v 0 c -45.419,0 -84.11,28.84 -98.74,69.219 v 0 c -40.465,21.211 -73.267,55.046 -93.176,96.277 v 0 z" /></clipPath><linearGradient
       id="linearGradient86"
       spreadMethod="pad"
       gradientTransform="matrix(157.28931,57.248631,57.248631,-157.28931,444.89111,428.66016)"
       gradientUnits="userSpaceOnUse"
       y2="0"
       x2="1"
       y1="0"
       x1="0"><stop
         id="stop78"
         offset="0"
         style="stop-opacity:1;stop-color:#ffffff" /><stop
         id="stop80"
         offset="0.433498"
         style="stop-opacity:1;stop-color:#ffffff" /><stop
         id="stop82"
         offset="0.62069"
         style="stop-opacity:1;stop-color:#a7a9ac" /><stop
         id="stop84"
         offset="1"
         style="stop-opacity:1;stop-color:#a7a9ac" /></linearGradient><clipPath
       id="clipPath96"
       clipPathUnits="userSpaceOnUse"><path
         id="path94"
         d="M 0,1280 H 1280 V 0 H 0 Z" /></clipPath><clipPath
       id="clipPath108"
       clipPathUnits="userSpaceOnUse"><path
         id="path106"
         d="M 541.26,828.779 C 537.21,817.619 535,805.57 535,793 v 0 c 0,-57.991 47.01,-105 105,-105 v 0 c 0.18,0 0.36,0.009 0.54,0.009 v 0 45 c -0.18,0 -0.36,-0.009 -0.54,-0.009 v 0 c -33.141,0 -60,26.859 -60,60 v 0 c 0,33.139 26.859,60 60,60 v 0 c -35.63,0 -69.231,-8.75 -98.74,-24.221" /></clipPath><linearGradient
       id="linearGradient124"
       spreadMethod="pad"
       gradientTransform="matrix(-28.799316,163.32901,163.32901,28.799316,611.39014,682.86963)"
       gradientUnits="userSpaceOnUse"
       y2="0"
       x2="1"
       y1="0"
       x1="0"><stop
         id="stop114"
         offset="0"
         style="stop-opacity:1;stop-color:#ffffff" /><stop
         id="stop116"
         offset="0.482759"
         style="stop-opacity:1;stop-color:#ffffff" /><stop
         id="stop118"
         offset="0.581281"
         style="stop-opacity:1;stop-color:#f3f4f4" /><stop
         id="stop120"
         offset="0.91133"
         style="stop-opacity:1;stop-color:#a7a9ac" /><stop
         id="stop122"
         offset="1"
         style="stop-opacity:1;stop-color:#a7a9ac" /></linearGradient><clipPath
       id="clipPath134"
       clipPathUnits="userSpaceOnUse"><path
         id="path132"
         d="M 640.54,546.99 C 673.43,546.7 700,519.959 700,487 v 0 c 0,-33.141 -26.86,-60 -60,-60 v 0 c 35.63,0 69.23,8.75 98.74,24.219 v 0 C 742.79,462.379 745,474.43 745,487 v 0 c 0,12.57 -2.21,24.619 -6.26,35.779 v 0 C 724.17,563 685.72,591.76 640.54,591.99 v 0 z" /></clipPath><linearGradient
       id="linearGradient150"
       spreadMethod="pad"
       gradientTransform="matrix(-28.495176,-161.60416,-161.60416,28.495176,701.22949,582.83203)"
       gradientUnits="userSpaceOnUse"
       y2="0"
       x2="1"
       y1="0"
       x1="0"><stop
         id="stop140"
         offset="0"
         style="stop-opacity:1;stop-color:#ffffff" /><stop
         id="stop142"
         offset="0.482759"
         style="stop-opacity:1;stop-color:#ffffff" /><stop
         id="stop144"
         offset="0.581281"
         style="stop-opacity:1;stop-color:#f3f4f4" /><stop
         id="stop146"
         offset="0.91133"
         style="stop-opacity:1;stop-color:#a7a9ac" /><stop
         id="stop148"
         offset="1"
         style="stop-opacity:1;stop-color:#a7a9ac" /></linearGradient></defs><g
     transform="matrix(1.3333333,0,0,-1.3333333,0,1706.6667)"
     id="g10">
     <!-- <path
       id="path12"
       style="fill:#33c6f4;fill-opacity:1;fill-rule:nonzero;stroke:none"
       d="M 0,0 H 1280 V 1280 H 0 Z" /> -->
       <g
       id="g14"><g
         clip-path="url(#clipPath20)"
         id="g16"><g
           transform="translate(857.6904,778.5215)"
           id="g22"><path
             id="path24"
             style="fill:#ffffff;fill-opacity:1;fill-rule:nonzero;stroke:none"
             d="m 0,0 -35.566,-28.021 c 19.588,-32.215 30.876,-70.038 30.876,-110.5 v -0.362 h 45 v 0.362 C 40.31,-87.541 25.518,-40.018 0,0" /></g></g></g><g
       id="g26"><g
         clip-path="url(#clipPath32)"
         id="g28"><g
           id="g34"><g
             id="g36"><path
               id="path48"
               style="fill:url(#linearGradient46);stroke:none"
               d="m 738.74,828.779 c 34.409,-18.035 63.272,-45.203 83.384,-78.279 v 0 l 35.566,28.022 C 811.885,850.353 731.51,898 640,898 v 0 c 45.42,0 84.11,-28.84 98.74,-69.221" /></g></g></g></g><g
       id="g50"><g
         clip-path="url(#clipPath56)"
         id="g52"><g
           transform="translate(898,639.6387)"
           id="g58"><path
             id="path60"
             style="fill:#ffffff;fill-opacity:1;fill-rule:nonzero;stroke:none"
             d="m 0,0 c -0.2,-142.33 -115.63,-257.639 -258,-257.639 -45.42,0 -84.109,28.84 -98.74,69.219 -4.05,11.16 -6.26,23.211 -6.26,35.781 0,12.571 2.21,24.619 6.26,35.78 14.631,40.38 53.32,69.22 98.74,69.22 0.18,0 0.36,-0.009 0.54,-0.009 v -45 c -0.18,0 -0.36,0.009 -0.54,0.009 -33.141,0 -60,-26.861 -60,-60 0,-33.14 26.859,-60 60,-60 35.63,0 69.229,8.75 98.74,24.219 C -91.44,-152.869 -45.14,-81.859 -45,0 Z" /></g><g
           transform="translate(427,640)"
           id="g62"><path
             id="path64"
             style="fill:#ffffff;fill-opacity:1;fill-rule:nonzero;stroke:none"
             d="M 0,0 V 0.359 C -15,0.949 -30,1.219 -45,0.24 V 0 c 0,-43.521 10.791,-84.514 29.82,-120.479 l 36.264,27.975 C 7.575,-64.529 0,-33.15 0,0" /></g></g></g><g
       id="g66"><g
         clip-path="url(#clipPath72)"
         id="g68"><g
           id="g74"><g
             id="g76"><path
               id="path88"
               style="fill:url(#linearGradient86);stroke:none"
               d="M 411.82,519.521 C 455.093,437.735 541.03,382 640,382 v 0 c -45.419,0 -84.11,28.84 -98.74,69.219 v 0 c -40.465,21.211 -73.267,55.046 -93.176,96.277 v 0 z" /></g></g></g></g><g
       id="g90"><g
         clip-path="url(#clipPath96)"
         id="g92"><g
           transform="translate(745,793)"
           id="g98"><path
             id="path100"
             style="fill:#ffffff;fill-opacity:1;fill-rule:nonzero;stroke:none"
             d="m 0,0 c 0,-57.811 -46.72,-104.701 -104.46,-104.99 v 45 C -71.57,-59.701 -45,-32.961 -45,0 c 0,33.139 -26.86,60 -60,60 -35.63,0 -69.23,-8.75 -98.74,-24.221 -67.821,-35.549 -114.119,-106.56 -114.26,-188.42 -15,0.59 -30,0.86 -45,-0.119 0.13,142.379 115.59,257.76 258,257.76 45.42,0 84.11,-28.84 98.74,-69.221 C -2.21,24.619 0,12.57 0,0" /></g></g></g><g
       id="g102"><g
         clip-path="url(#clipPath108)"
         id="g104"><g
           id="g110"><g
             id="g112"><path
               id="path126"
               style="fill:url(#linearGradient124);stroke:none"
               d="M 541.26,828.779 C 537.21,817.619 535,805.57 535,793 v 0 c 0,-57.991 47.01,-105 105,-105 v 0 c 0.18,0 0.36,0.009 0.54,0.009 v 0 45 c -0.18,0 -0.36,-0.009 -0.54,-0.009 v 0 c -33.141,0 -60,26.859 -60,60 v 0 c 0,33.139 26.859,60 60,60 v 0 c -35.63,0 -69.231,-8.75 -98.74,-24.221" /></g></g></g></g><g
       id="g128"><g
         clip-path="url(#clipPath134)"
         id="g130"><g
           id="g136"><g
             id="g138"><path
               id="path152"
               style="fill:url(#linearGradient150);stroke:none"
               d="M 640.54,546.99 C 673.43,546.7 700,519.959 700,487 v 0 c 0,-33.141 -26.86,-60 -60,-60 v 0 c 35.63,0 69.23,8.75 98.74,24.219 v 0 C 742.79,462.379 745,474.43 745,487 v 0 c 0,12.57 -2.21,24.619 -6.26,35.779 v 0 C 724.17,563 685.72,591.76 640.54,591.99 v 0 z" /></g></g></g></g></g></svg>